<svg width="20" height="20" viewBox="0 0 20 15" fill="none" xmlns="http://www.w3.org/2000/svg">
  <rect width="20" height="15" fill="white"/>
  <path d="M0 0H20V15H0V0Z" fill="#012169"/>
  <path d="M2.34375 0L9.96875 5.625L17.5938 0H20V1.875L12.5 7.5L20 13.125V15H17.5L10 9.375L2.5 15H0V13.125L7.5 7.5L0 1.875V0H2.34375Z" fill="white"/>
  <path d="M13.2812 8.90625L20 13.75V15L11.7188 8.90625H13.2812ZM7.5 9.375L7.65625 10.4688L1.71875 15H0L7.5 9.375ZM20 0V0.15625L12.1875 6.09375L12.3438 4.6875L18.75 0H20ZM0 0L7.42188 5.3125H5.625L0 1.25V0Z" fill="#C8102E"/>
  <path d="M7.5 0V15H12.5V0H7.5ZM0 5V10H20V5H0Z" fill="white"/>
  <path d="M0 6V9H20V6H0ZM8.5 0V15H11.5V0H8.5Z" fill="#C8102E"/>
</svg> 